<svg width="107" height="107" viewBox="0 0 107 107" fill="none" xmlns="http://www.w3.org/2000/svg">
<path d="M93.2822 42.7999L99.922 29.3476C100.127 28.9319 100.226 28.4721 100.211 28.0089C100.195 27.5457 100.066 27.0934 99.8345 26.6921C99.6028 26.2908 99.2757 25.9529 98.8824 25.7083C98.489 25.4637 98.0414 25.32 97.5792 25.2899L82.6215 24.3206L81.6528 9.35234C81.6231 8.8891 81.4795 8.44037 81.2348 8.04603C80.9901 7.6517 80.6518 7.32398 80.25 7.09199C79.8482 6.86 79.3954 6.73094 78.9317 6.71628C78.4681 6.70161 78.008 6.80179 77.5924 7.00792L64.1608 13.658L55.8428 1.17503C54.7953 -0.391677 52.2047 -0.391677 51.1572 1.17503L42.8392 13.658L29.4076 7.00792C28.992 6.80179 28.5319 6.70161 28.0683 6.71628C27.6046 6.73094 27.1518 6.86 26.75 7.09199C26.3482 7.32398 26.0099 7.6517 25.7652 8.04603C25.5205 8.44037 25.3769 8.8891 25.3472 9.35234L24.3842 24.3206L9.42077 25.2843C8.95785 25.314 8.50943 25.4577 8.11537 25.7026C7.72132 25.9475 7.39382 26.286 7.162 26.6881C6.93018 27.0902 6.8012 27.5433 6.78655 28.0073C6.77189 28.4713 6.872 28.9317 7.07798 29.3476L13.7177 42.7942L1.24919 51.1181C0.864718 51.3763 0.549661 51.7252 0.331808 52.134C0.113954 52.5429 0 52.9991 0 53.4625C0 53.9258 0.113954 54.3821 0.331808 54.7909C0.549661 55.1998 0.864718 55.5487 1.24919 55.8069L13.7234 64.1307L7.07798 77.5774C6.87027 77.9927 6.76882 78.4532 6.78273 78.9175C6.79663 79.3817 6.92546 79.8353 7.15766 80.2374C7.38986 80.6396 7.71817 80.9778 8.11315 81.2217C8.50813 81.4657 8.95743 81.6077 9.42077 81.635L24.3785 82.5987L25.3416 97.5726C25.3712 98.0359 25.5148 98.4846 25.7596 98.8789C26.0043 99.2733 26.3426 99.601 26.7444 99.833C27.1462 100.065 27.599 100.194 28.0627 100.209C28.5263 100.223 28.9864 100.123 29.402 99.917L42.8392 93.2726L51.1572 105.75C51.4152 106.135 51.7639 106.45 52.1725 106.668C52.5811 106.886 53.037 107 53.5 107C53.963 107 54.4189 106.886 54.8275 106.668C55.2361 106.45 55.5848 106.135 55.8428 105.75L64.1608 93.2726L77.598 99.917C78.0136 100.123 78.4737 100.223 78.9373 100.209C79.401 100.194 79.8538 100.065 80.2556 99.833C80.6574 99.601 80.9957 99.2733 81.2404 98.8789C81.4852 98.4846 81.6288 98.0359 81.6585 97.5726L82.6215 82.6044L97.5792 81.635C98.0422 81.6053 98.4906 81.4616 98.8846 81.2167C99.2787 80.9718 99.6062 80.6333 99.838 80.2312C100.07 79.8292 100.199 79.376 100.213 78.912C100.228 78.4481 100.128 77.9877 99.922 77.5717L93.2822 64.1307L105.751 55.8013C106.135 55.5431 106.45 55.1941 106.668 54.7853C106.886 54.3764 107 53.9202 107 53.4568C107 52.9935 106.886 52.5373 106.668 52.1284C106.45 51.7196 106.135 51.3706 105.751 51.1124L93.2822 42.7999Z" fill="#D6FF72"/>
</svg>
