<svg width="100" height="70" viewBox="0 0 100 70" fill="none" xmlns="http://www.w3.org/2000/svg">
<path d="M65.625 35C65.625 39.144 63.9788 43.1183 61.0485 46.0485C58.1183 48.9788 54.144 50.625 50 50.625C45.856 50.625 41.8817 48.9788 38.9515 46.0485C36.0212 43.1183 34.375 39.144 34.375 35C34.375 30.856 36.0212 26.8817 38.9515 23.9515C41.8817 21.0212 45.856 19.375 50 19.375C54.144 19.375 58.1183 21.0212 61.0485 23.9515C63.9788 26.8817 65.625 30.856 65.625 35Z" fill="#FF99D9"/>
<path d="M0 35C0 35 18.75 0.625 50 0.625C81.25 0.625 100 35 100 35C100 35 81.25 69.375 50 69.375C18.75 69.375 0 35 0 35ZM50 56.875C55.8016 56.875 61.3656 54.5703 65.468 50.468C69.5703 46.3656 71.875 40.8016 71.875 35C71.875 29.1984 69.5703 23.6344 65.468 19.532C61.3656 15.4297 55.8016 13.125 50 13.125C44.1984 13.125 38.6344 15.4297 34.532 19.532C30.4297 23.6344 28.125 29.1984 28.125 35C28.125 40.8016 30.4297 46.3656 34.532 50.468C38.6344 54.5703 44.1984 56.875 50 56.875Z" fill="#FF99D9"/>
</svg>
