<svg width="38" height="40" viewBox="0 0 38 40" fill="none" xmlns="http://www.w3.org/2000/svg">
<path d="M7.20418 27.984V34.8388L13.9333 33.1453L19 38.3065L24.0667 33.1453L30.7958 34.8388V27.984L37.6042 26.2098L34.2 19.3549L37.6042 12.5001L30.7958 10.7259V3.87106L24.0667 5.56461L19 0.40332L13.9333 5.56461L7.20418 3.87106V10.7259L0.395844 12.5001L3.80001 19.3549L0.395844 26.2098L7.20418 27.984ZM6.80834 17.8227L5.30418 14.6775L7.99584 14.0324C8.78751 13.8711 9.40765 13.4813 9.85626 12.863C10.3049 12.2447 10.5292 11.5324 10.5292 10.7259V8.30655L13.0625 9.03235H13.9333C14.8306 9.03235 15.6222 8.68289 16.3083 7.98397L19 5.24203L21.6917 7.98397C22.3778 8.68289 23.1695 9.03235 24.0667 9.03235C24.3833 9.03235 24.6736 8.97859 24.9375 8.87106L27.4708 8.30655V10.7259C27.4708 11.5324 27.6952 12.2447 28.1438 12.863C28.5924 13.4813 29.2125 13.8711 30.0042 14.0324L32.6958 14.6775L31.1917 17.8227C30.6639 18.8442 30.6639 19.8657 31.1917 20.8872L32.6958 24.0324L30.0042 24.6775C29.2125 24.8388 28.5924 25.2286 28.1438 25.8469C27.6952 26.4652 27.4708 27.1775 27.4708 27.984V30.4033L24.9375 29.6775H24.0667C23.1695 29.6775 22.3778 30.027 21.6917 30.7259L19 33.4678L16.3083 30.7259C15.6222 30.027 14.8306 29.6775 13.9333 29.6775C13.6167 29.6775 13.3264 29.7313 13.0625 29.8388L10.5292 30.4033V27.984C10.5292 27.1775 10.3049 26.4652 9.85626 25.8469C9.40765 25.2286 8.78751 24.8388 7.99584 24.6775L5.30418 24.0324L6.80834 20.8872C7.33612 19.8657 7.33612 18.8442 6.80834 17.8227ZM17.3375 25.242L25.2542 17.0969C25.9931 16.3442 25.9931 15.5377 25.2542 14.6775C24.4625 13.9786 23.6708 13.9786 22.8792 14.6775L17.3375 20.4033L15.1208 18.1453C14.3292 17.4463 13.5375 17.4463 12.7458 18.1453C12.0597 18.9517 12.0597 19.7582 12.7458 20.5646L17.3375 25.242Z" fill="#D6FF72"/>
</svg>
