<svg width="132" height="91" viewBox="0 0 132 91" fill="none" xmlns="http://www.w3.org/2000/svg">
<path d="M86.5718 45.3148C86.5718 50.7343 84.4189 55.9319 80.5868 59.764C76.7546 63.5962 71.5571 65.7491 66.1376 65.7491C60.7181 65.7491 55.5206 63.5962 51.6884 59.764C47.8563 55.9319 45.7034 50.7343 45.7034 45.3148C45.7034 39.8953 47.8563 34.6978 51.6884 30.8657C55.5206 27.0335 60.7181 24.8806 66.1376 24.8806C71.5571 24.8806 76.7546 27.0335 80.5868 30.8657C84.4189 34.6978 86.5718 39.8953 86.5718 45.3148Z" fill="#F96400"/>
<path d="M0.748047 45.3149C0.748047 45.3149 25.2691 0.359619 66.1376 0.359619C107.006 0.359619 131.527 45.3149 131.527 45.3149C131.527 45.3149 107.006 90.2702 66.1376 90.2702C25.2691 90.2702 0.748047 45.3149 0.748047 45.3149ZM66.1376 73.9228C73.7249 73.9228 81.0014 70.9088 86.3664 65.5438C91.7314 60.1787 94.7455 52.9022 94.7455 45.3149C94.7455 37.7276 91.7314 30.4511 86.3664 25.0861C81.0014 19.721 73.7249 16.707 66.1376 16.707C58.5503 16.707 51.2737 19.721 45.9087 25.0861C40.5437 30.4511 37.5297 37.7276 37.5297 45.3149C37.5297 52.9022 40.5437 60.1787 45.9087 65.5438C51.2737 70.9088 58.5503 73.9228 66.1376 73.9228Z" fill="#F96400"/>
</svg>
