<svg width="23" height="23" viewBox="0 0 23 23" fill="none" xmlns="http://www.w3.org/2000/svg">
<path d="M0 11.5C0 14.55 1.2116 17.4751 3.36827 19.6317C5.52494 21.7884 8.45001 23 11.5 23C14.55 23 17.4751 21.7884 19.6317 19.6317C21.7884 17.4751 23 14.55 23 11.5C23 8.45001 21.7884 5.52494 19.6317 3.36827C17.4751 1.2116 14.55 0 11.5 0C8.45001 0 5.52494 1.2116 3.36827 3.36827C1.2116 5.52494 0 8.45001 0 11.5H0ZM8.487 15.5293C8.4207 15.598 8.34139 15.6527 8.2537 15.6904C8.16601 15.7281 8.07169 15.7479 7.97626 15.7487C7.88082 15.7495 7.78618 15.7314 7.69785 15.6952C7.60951 15.6591 7.52926 15.6057 7.46178 15.5382C7.39429 15.4707 7.34092 15.3905 7.30478 15.3022C7.26865 15.2138 7.25046 15.1192 7.25129 15.0237C7.25212 14.9283 7.27195 14.834 7.30962 14.7463C7.34728 14.6586 7.40204 14.5793 7.47069 14.513L13.3587 8.625H9.37969C9.18906 8.625 9.00625 8.54927 8.87146 8.41448C8.73666 8.27969 8.66094 8.09687 8.66094 7.90625C8.66094 7.71563 8.73666 7.53281 8.87146 7.39802C9.00625 7.26323 9.18906 7.1875 9.37969 7.1875H15.0938C15.2844 7.1875 15.4672 7.26323 15.602 7.39802C15.7368 7.53281 15.8125 7.71563 15.8125 7.90625V13.6203C15.8125 13.8109 15.7368 13.9938 15.602 14.1285C15.4672 14.2633 15.2844 14.3391 15.0938 14.3391C14.9031 14.3391 14.7203 14.2633 14.5855 14.1285C14.4507 13.9938 14.375 13.8109 14.375 13.6203V9.64131L8.487 15.5293Z" fill="white"/>
</svg>
