<svg width="100" height="100" viewBox="0 0 100 100" fill="none" xmlns="http://www.w3.org/2000/svg">
<path d="M87.1797 39.9999L93.3851 27.4277C93.5764 27.0391 93.6691 26.6094 93.6548 26.1765C93.6405 25.7436 93.5198 25.3209 93.3032 24.9459C93.0867 24.5709 92.7811 24.2551 92.4134 24.0265C92.0458 23.7979 91.6275 23.6636 91.1955 23.6354L77.2163 22.7295L76.3111 8.74051C76.2833 8.30757 76.1491 7.88819 75.9204 7.51966C75.6917 7.15112 75.3755 6.84484 75 6.62803C74.6245 6.41122 74.2013 6.2906 73.768 6.27689C73.3347 6.26319 72.9047 6.35681 72.5162 6.54945L59.9634 12.7645L52.1895 1.09816C51.2106 -0.366053 48.7895 -0.366053 47.8105 1.09816L40.0367 12.7645L27.4838 6.54945C27.0953 6.35681 26.6654 6.26319 26.232 6.27689C25.7987 6.2906 25.3755 6.41122 25 6.62803C24.6245 6.84484 24.3083 7.15112 24.0796 7.51966C23.8509 7.88819 23.7167 8.30757 23.689 8.74051L22.7889 22.7295L8.80446 23.6302C8.37182 23.6579 7.95274 23.7922 7.58446 24.0211C7.21618 24.25 6.91011 24.5664 6.69346 24.9422C6.4768 25.3179 6.35627 25.7414 6.34257 26.175C6.32887 26.6087 6.42243 27.0389 6.61494 27.4277L12.8203 39.9946L1.16746 47.7739C0.808148 48.0152 0.513702 48.3413 0.310101 48.7234C0.106499 49.1055 0 49.5319 0 49.9649C0 50.398 0.106499 50.8244 0.310101 51.2065C0.513702 51.5886 0.808148 51.9147 1.16746 52.156L12.8256 59.9353L6.61494 72.5022C6.42081 72.8904 6.326 73.3207 6.339 73.7546C6.35199 74.1885 6.47239 74.6124 6.6894 74.9883C6.90641 75.3641 7.21324 75.6802 7.58238 75.9081C7.95152 76.1361 8.37143 76.2688 8.80446 76.2944L22.7837 77.1951L23.6837 91.1894C23.7114 91.6223 23.8456 92.0417 24.0744 92.4102C24.3031 92.7787 24.6192 93.085 24.9948 93.3018C25.3703 93.5187 25.7935 93.6393 26.2268 93.653C26.6601 93.6667 27.0901 93.5731 27.4785 93.3804L40.0367 87.1707L47.8105 98.8317C48.0516 99.1913 48.3775 99.4859 48.7593 99.6897C49.1412 99.8934 49.5673 100 50 100C50.4327 100 50.8588 99.8934 51.2407 99.6897C51.6225 99.4859 51.9484 99.1913 52.1895 98.8317L59.9634 87.1707L72.5215 93.3804C72.9099 93.5731 73.3399 93.6667 73.7732 93.653C74.2065 93.6393 74.6298 93.5187 75.0053 93.3018C75.3808 93.085 75.6969 92.7787 75.9256 92.4102C76.1544 92.0417 76.2886 91.6223 76.3163 91.1894L77.2163 77.2003L91.1955 76.2944C91.6282 76.2667 92.0473 76.1324 92.4155 75.9035C92.7838 75.6746 93.0899 75.3582 93.3065 74.9825C93.5232 74.6067 93.6437 74.1832 93.6574 73.7496C93.6711 73.3159 93.5776 72.8857 93.3851 72.497L87.1797 59.9353L98.8325 52.1507C99.1918 51.9094 99.4863 51.5833 99.6899 51.2012C99.8935 50.8191 100 50.3927 100 49.9597C100 49.5266 99.8935 49.1003 99.6899 48.7181C99.4863 48.336 99.1918 48.0099 98.8325 47.7686L87.1797 39.9999Z" fill="#D6FF72"/>
</svg>
