<svg width="207" height="207" viewBox="0 0 207 207" fill="none" xmlns="http://www.w3.org/2000/svg">
<g clip-path="url(#clip0_134_55)">
<path d="M123.852 91.5499C126.986 96.9829 127.833 103.438 126.208 109.496C124.582 115.554 120.616 120.718 115.183 123.852C109.75 126.986 103.295 127.833 97.2371 126.208C91.1793 124.582 86.0154 120.617 82.8814 115.183C79.7474 109.75 78.9 103.295 80.5256 97.2372C82.1513 91.1794 86.1168 86.0154 91.5498 82.8814C96.9829 79.7474 103.438 78.9 109.496 80.5257C115.554 82.1513 120.718 86.1168 123.852 91.5499Z" fill="#3B47E4"/>
<path d="M37.8138 141.18C37.8138 141.18 36.3991 81.9327 77.3696 58.2991C118.34 34.6655 168.919 65.5529 168.919 65.5529C168.919 65.5529 170.334 124.801 129.364 148.434C88.3931 172.068 37.8138 141.18 37.8138 141.18ZM119.91 132.046C127.516 127.658 133.068 120.429 135.344 111.948C137.62 103.467 136.434 94.4294 132.046 86.8231C127.658 79.2169 120.429 73.6652 111.948 71.3893C103.467 69.1134 94.4293 70.2997 86.8231 74.6873C79.2169 79.0749 73.6651 86.3044 71.3892 94.7854C69.1133 103.266 70.2997 112.304 74.6873 119.91C79.0749 127.516 86.3044 133.068 94.7853 135.344C103.266 137.62 112.304 136.434 119.91 132.046Z" fill="#3B47E4"/>
</g>
<defs>
<clipPath id="clip0_134_55">
<rect width="151.355" height="151.355" fill="white" transform="translate(0 75.6277) rotate(-29.9783)"/>
</clipPath>
</defs>
</svg>
