<svg width="38" height="36" viewBox="0 0 38 36" fill="none" xmlns="http://www.w3.org/2000/svg">
<path d="M32.1047 2.44679C31.778 1.90508 31.3172 1.4567 30.7668 1.14489C30.2164 0.833079 29.5949 0.668361 28.9624 0.666626H9.03769C7.75802 0.666626 6.55352 1.34863 5.89536 2.44679L0.928855 10.7225C0.756989 11.0074 0.66633 11.3339 0.666688 11.6666C0.67401 13.4362 1.32576 15.1425 2.50002 16.4663V31.8333C2.50002 33.8555 4.14452 35.5 6.16669 35.5H31.8334C33.8555 35.5 35.5 33.8555 35.5 31.8333V16.4663C36.6743 15.1425 37.326 13.4362 37.3334 11.6666C37.3337 11.3339 37.2431 11.0074 37.0712 10.7225L32.1047 2.44679ZM33.6374 12.1268C33.5242 13.012 33.0926 13.8256 32.4232 14.4158C31.7538 15.0059 30.8924 15.332 30 15.3333C27.9779 15.3333 26.3334 13.6888 26.3334 11.6666C26.3334 11.542 26.2875 11.432 26.2619 11.3146L26.2985 11.3073L24.9034 4.33329H28.9624L33.6374 12.1268ZM16.8349 4.33329H21.1634L22.6539 11.7858C22.5897 13.7511 20.98 15.3333 19 15.3333C17.02 15.3333 15.4104 13.7511 15.3462 11.7858L16.8349 4.33329ZM9.03769 4.33329H13.0967L11.7034 11.3073L11.74 11.3146C11.7125 11.432 11.6667 11.542 11.6667 11.6666C11.6667 13.6888 10.0222 15.3333 8.00002 15.3333C7.10765 15.332 6.24627 15.0059 5.57687 14.4158C4.90746 13.8256 4.47585 13.012 4.36269 12.1268L9.03769 4.33329ZM15.3334 31.8333V26.3333H22.6667V31.8333H15.3334ZM26.3334 31.8333V26.3333C26.3334 24.3111 24.6889 22.6666 22.6667 22.6666H15.3334C13.3112 22.6666 11.6667 24.3111 11.6667 26.3333V31.8333H6.16669V18.7396C6.75519 18.8918 7.36202 19 8.00002 19C9.04102 19.0005 10.0701 18.7789 11.0186 18.3498C11.9671 17.9208 12.8131 17.2943 13.5 16.5121C14.8439 18.0375 16.8129 19 19 19C21.1872 19 23.1562 18.0375 24.5 16.5121C25.187 17.2943 26.033 17.9208 26.9814 18.3498C27.9299 18.7789 28.959 19.0005 30 19C30.638 19 31.2449 18.8918 31.8334 18.7396V31.8333H26.3334Z" fill="#F96400"/>
</svg>
