<svg width="37" height="37" viewBox="0 0 37 37" fill="none" xmlns="http://www.w3.org/2000/svg">
<path d="M18.5 0C13.4796 0 12.8483 0.023125 10.8757 0.111C8.90312 0.2035 7.55956 0.513375 6.3825 0.97125C5.14784 1.43564 4.02951 2.1641 3.10569 3.10569C2.16468 4.02998 1.43631 5.14818 0.97125 6.3825C0.513375 7.55725 0.201188 8.90312 0.111 10.8687C0.023125 12.8459 0 13.4749 0 18.5023C0 23.5251 0.023125 24.1541 0.111 26.1266C0.2035 28.0969 0.513375 29.4404 0.97125 30.6175C1.44531 31.8339 2.07663 32.8652 3.10569 33.8943C4.13244 34.9234 5.16381 35.557 6.38019 36.0288C7.55956 36.4866 8.90081 36.7988 10.8711 36.889C12.8459 36.9769 13.4749 37 18.5 37C23.5251 37 24.1518 36.9769 26.1266 36.889C28.0946 36.7965 29.4428 36.4866 30.6198 36.0288C31.8537 35.5641 32.9712 34.8357 33.8943 33.8943C34.9234 32.8652 35.5547 31.8339 36.0288 30.6175C36.4843 29.4404 36.7965 28.0969 36.889 26.1266C36.9769 24.1541 37 23.5251 37 18.5C37 13.4749 36.9769 12.8459 36.889 10.8711C36.7965 8.90313 36.4843 7.55725 36.0288 6.3825C35.5638 5.14815 34.8354 4.02994 33.8943 3.10569C32.9708 2.16375 31.8524 1.43524 30.6175 0.97125C29.4381 0.513375 28.0922 0.201188 26.1243 0.111C24.1494 0.023125 23.5228 0 18.4954 0H18.5023H18.5ZM16.8419 3.33463H18.5023C23.4418 3.33463 24.0269 3.35081 25.9763 3.441C27.7801 3.52194 28.7606 3.82488 29.4127 4.07694C30.2752 4.41225 30.8927 4.81462 31.5402 5.46212C32.1877 6.10962 32.5877 6.72475 32.9231 7.58963C33.1774 8.23944 33.4781 9.21994 33.559 11.0237C33.6492 12.9731 33.6677 13.5582 33.6677 18.4954C33.6677 23.4326 33.6492 24.0199 33.559 25.9694C33.4781 27.7731 33.1751 28.7513 32.9231 29.4034C32.6265 30.2067 32.1531 30.933 31.5379 31.5286C30.8904 32.1761 30.2753 32.5762 29.4104 32.9115C28.7629 33.1659 27.7824 33.4665 25.9763 33.5498C24.0269 33.6376 23.4418 33.6584 18.5023 33.6584C13.5628 33.6584 12.9754 33.6376 11.026 33.5498C9.22225 33.4665 8.24406 33.1659 7.59194 32.9115C6.78834 32.6153 6.06135 32.1428 5.46444 31.5286C4.84874 30.9321 4.37461 30.2051 4.07694 29.4011C3.82488 28.7513 3.52194 27.7708 3.441 25.9671C3.35313 24.0176 3.33463 23.4326 3.33463 18.4907C3.33463 13.5512 3.35313 12.9685 3.441 11.0191C3.52425 9.21531 3.82488 8.23481 4.07925 7.58269C4.41456 6.72013 4.81694 6.10269 5.46444 5.45519C6.11194 4.80769 6.72706 4.40763 7.59194 4.07231C8.24406 3.81794 9.22225 3.51731 11.026 3.43406C12.7326 3.35544 13.394 3.33231 16.8419 3.33V3.33463ZM28.3767 6.40562C28.0852 6.40562 27.7965 6.46305 27.5271 6.57461C27.2578 6.68618 27.0131 6.8497 26.8069 7.05585C26.6008 7.26199 26.4372 7.50672 26.3257 7.77607C26.2141 8.04541 26.1567 8.33409 26.1567 8.62562C26.1567 8.91716 26.2141 9.20584 26.3257 9.47518C26.4372 9.74452 26.6008 9.98926 26.8069 10.1954C27.0131 10.4015 27.2578 10.5651 27.5271 10.6766C27.7965 10.7882 28.0852 10.8456 28.3767 10.8456C28.9655 10.8456 29.5301 10.6117 29.9465 10.1954C30.3628 9.77907 30.5967 9.21441 30.5967 8.62562C30.5967 8.03684 30.3628 7.47218 29.9465 7.05585C29.5301 6.63952 28.9655 6.40562 28.3767 6.40562ZM18.5023 9.00025C17.2422 8.98059 15.9907 9.21181 14.8208 9.68045C13.6508 10.1491 12.5858 10.8458 11.6877 11.73C10.7896 12.6142 10.0764 13.6682 9.58957 14.8307C9.10274 15.9931 8.85202 17.2409 8.85202 18.5012C8.85202 19.7615 9.10274 21.0092 9.58957 22.1716C10.0764 23.3341 10.7896 24.3881 11.6877 25.2723C12.5858 26.1565 13.6508 26.8532 14.8208 27.3219C15.9907 27.7905 17.2422 28.0217 18.5023 28.0021C20.9964 27.9632 23.3752 26.945 25.1253 25.1675C26.8753 23.39 27.8561 20.9956 27.8561 18.5012C27.8561 16.0067 26.8753 13.6123 25.1253 11.8348C23.3752 10.0573 20.9964 9.03916 18.5023 9.00025ZM18.5023 12.3326C20.138 12.3326 21.7067 12.9823 22.8633 14.139C24.02 15.2956 24.6698 16.8643 24.6698 18.5C24.6698 20.1357 24.02 21.7044 22.8633 22.861C21.7067 24.0177 20.138 24.6674 18.5023 24.6674C16.8666 24.6674 15.2979 24.0177 14.1413 22.861C12.9847 21.7044 12.3349 20.1357 12.3349 18.5C12.3349 16.8643 12.9847 15.2956 14.1413 14.139C15.2979 12.9823 16.8666 12.3326 18.5023 12.3326Z" fill="#F96400"/>
</svg>
