<svg width="44" height="44" viewBox="0 0 44 44" fill="none" xmlns="http://www.w3.org/2000/svg">
<path d="M19.25 38.5C19.25 38.5 16.5 38.5 16.5 35.75C16.5 33 19.25 24.75 30.25 24.75C41.25 24.75 44 33 44 35.75C44 38.5 41.25 38.5 41.25 38.5H19.25ZM30.25 22C32.438 22 34.5365 21.1308 36.0836 19.5836C37.6308 18.0365 38.5 15.938 38.5 13.75C38.5 11.562 37.6308 9.46354 36.0836 7.91637C34.5365 6.36919 32.438 5.5 30.25 5.5C28.062 5.5 25.9635 6.36919 24.4164 7.91637C22.8692 9.46354 22 11.562 22 13.75C22 15.938 22.8692 18.0365 24.4164 19.5836C25.9635 21.1308 28.062 22 30.25 22Z" fill="#F96400"/>
<path fill-rule="evenodd" clip-rule="evenodd" d="M14.344 38.5C13.9363 37.6414 13.733 36.7002 13.75 35.75C13.75 32.0237 15.62 28.1875 19.074 25.52C17.35 24.9888 15.5539 24.729 13.75 24.75C2.75 24.75 0 33 0 35.75C0 38.5 2.75 38.5 2.75 38.5H14.344Z" fill="#F96400"/>
<path d="M12.375 22C14.1984 22 15.947 21.2757 17.2364 19.9864C18.5257 18.697 19.25 16.9484 19.25 15.125C19.25 13.3016 18.5257 11.553 17.2364 10.2636C15.947 8.97433 14.1984 8.25 12.375 8.25C10.5516 8.25 8.80295 8.97433 7.51364 10.2636C6.22433 11.553 5.5 13.3016 5.5 15.125C5.5 16.9484 6.22433 18.697 7.51364 19.9864C8.80295 21.2757 10.5516 22 12.375 22Z" fill="#F96400"/>
</svg>
