<svg width="44" height="44" viewBox="0 0 44 44" fill="none" xmlns="http://www.w3.org/2000/svg">
<path d="M8.25 5.5C8.25 4.04131 8.82946 2.64236 9.86091 1.61091C10.8924 0.579463 12.2913 0 13.75 0L30.25 0C31.7087 0 33.1076 0.579463 34.1391 1.61091C35.1705 2.64236 35.75 4.04131 35.75 5.5V38.5C35.75 39.9587 35.1705 41.3576 34.1391 42.3891C33.1076 43.4205 31.7087 44 30.25 44H13.75C12.2913 44 10.8924 43.4205 9.86091 42.3891C8.82946 41.3576 8.25 39.9587 8.25 38.5V5.5ZM24.75 35.75C24.75 35.0207 24.4603 34.3212 23.9445 33.8055C23.4288 33.2897 22.7293 33 22 33C21.2707 33 20.5712 33.2897 20.0555 33.8055C19.5397 34.3212 19.25 35.0207 19.25 35.75C19.25 36.4793 19.5397 37.1788 20.0555 37.6945C20.5712 38.2103 21.2707 38.5 22 38.5C22.7293 38.5 23.4288 38.2103 23.9445 37.6945C24.4603 37.1788 24.75 36.4793 24.75 35.75Z" fill="#F96400"/>
</svg>
