<svg width="51" height="49" viewBox="0 0 51 49" fill="none" xmlns="http://www.w3.org/2000/svg">
<path d="M42.5 16.3333H36.125V12.25C36.125 10.0041 34.2125 8.16663 31.875 8.16663H19.125C16.7875 8.16663 14.875 10.0041 14.875 12.25V16.3333H8.5C6.1625 16.3333 4.25 18.1708 4.25 20.4166V40.8333H46.75V20.4166C46.75 18.1708 44.8375 16.3333 42.5 16.3333ZM19.125 12.25H31.875V16.3333H19.125V12.25ZM42.5 36.75H8.5V30.625H12.75V32.6666H17V30.625H34V32.6666H38.25V30.625H42.5V36.75ZM38.25 26.5416V24.5H34V26.5416H17V24.5H12.75V26.5416H8.5V20.4166H42.5V26.5416H38.25Z" fill="#F96400"/>
</svg>
