<svg width="26" height="26" viewBox="0 0 26 26" fill="none" xmlns="http://www.w3.org/2000/svg">
<path d="M25.3104 16.9662L17.4324 13.0001L25.3104 9.03402C25.4659 8.95547 25.6027 8.84921 25.7127 8.7215C25.8228 8.59379 25.9039 8.4472 25.9512 8.29035C25.9985 8.13351 26.0112 7.96956 25.9884 7.80817C25.9657 7.64677 25.9079 7.49117 25.8186 7.35052L25.8222 7.35594L24.7432 5.63994C24.6543 5.49911 24.5356 5.37599 24.3941 5.27784C24.2525 5.17968 24.091 5.10847 23.919 5.06839C23.747 5.02832 23.568 5.02019 23.3925 5.04448C23.217 5.06878 23.0486 5.12501 22.8972 5.20986L22.9031 5.20661L15.2177 9.47819L15.4103 1.24161V1.21777C15.4103 0.545023 14.8159 -0.000976562 14.082 -0.000976562H11.924C11.1901 -0.000976562 10.5944 0.545023 10.5944 1.21777V1.24486V1.24377L10.7871 9.48036L3.10052 5.20986C2.94976 5.12595 2.7823 5.07041 2.60788 5.04646C2.43346 5.02251 2.25559 5.03064 2.08463 5.07037C1.91368 5.1101 1.75307 5.18064 1.61217 5.27787C1.47127 5.3751 1.3529 5.49708 1.26397 5.63669L1.26042 5.64211L0.181424 7.35486C0.092822 7.4948 0.0355623 7.64953 0.0129963 7.81001C-0.00956956 7.97048 0.00301177 8.13347 0.0500039 8.28943C0.096996 8.44539 0.177455 8.59119 0.286671 8.7183C0.395887 8.84541 0.531666 8.95127 0.68606 9.02969L0.693151 9.03294L8.57115 12.999L0.693151 16.9651C0.537666 17.0437 0.400882 17.1499 0.290841 17.2776C0.180801 17.4053 0.0997239 17.5519 0.0523776 17.7088C0.00503128 17.8656 -0.00762893 18.0296 0.0151412 18.191C0.0379114 18.3524 0.0956524 18.508 0.18497 18.6486L0.181424 18.6432L1.26042 20.357C1.34928 20.4979 1.46797 20.621 1.6095 20.7191C1.75104 20.8173 1.91257 20.8885 2.08458 20.9286C2.25659 20.9686 2.4356 20.9768 2.61109 20.9525C2.78658 20.9282 2.955 20.872 3.10642 20.7871L3.10052 20.7904L10.7859 16.5188L10.5932 24.7554V24.7814C10.5932 25.4541 11.1889 26.0001 11.9228 26.0001H14.0808C14.8147 26.0001 15.4103 25.4541 15.4103 24.7814V24.7543V24.7554L15.2177 16.5188L22.9031 20.7904C23.0538 20.8743 23.2213 20.9298 23.3957 20.9538C23.5701 20.9777 23.748 20.9696 23.9189 20.9298C24.0899 20.8901 24.2505 20.8196 24.3914 20.7223C24.5323 20.6251 24.6507 20.5031 24.7396 20.3635L24.7432 20.3581L25.8222 18.6443C25.9108 18.5043 25.968 18.3496 25.9906 18.1891C26.0131 18.0287 26.0006 17.8657 25.9536 17.7097C25.9066 17.5537 25.8261 17.4079 25.7169 17.2808C25.6077 17.1537 25.4719 17.0479 25.3175 16.9694L25.3104 16.9662Z" fill="#D6FF72"/>
</svg>
