<svg width="69" height="69" viewBox="0 0 69 69" fill="none" xmlns="http://www.w3.org/2000/svg">
<path d="M47.7825 17.8538C47.4849 17.6182 47.1436 17.4438 46.7782 17.3408C46.4128 17.2378 46.0307 17.2081 45.6538 17.2536C45.2769 17.299 44.9128 17.4186 44.5824 17.6056C44.252 17.7925 43.9619 18.043 43.7288 18.3426L23.6038 44.2176L13.7425 32.2001C13.5112 31.8922 13.2204 31.6339 12.8873 31.4405C12.5543 31.2472 12.1858 31.1227 11.8037 31.0745C11.4216 31.0263 11.0338 31.0553 10.6631 31.1599C10.2925 31.2645 9.94666 31.4425 9.64613 31.6833C9.3456 31.9241 9.09651 32.2228 8.91365 32.5618C8.73079 32.9007 8.61789 33.2729 8.58164 33.6563C8.54539 34.0397 8.58654 34.4265 8.70265 34.7936C8.81875 35.1608 9.00744 35.501 9.25751 35.7938L21.2463 50.6863C21.5169 51.0199 21.8587 51.2886 22.2468 51.4726C22.6349 51.6567 23.0593 51.7515 23.4888 51.7501C23.9447 51.7704 24.3989 51.682 24.8138 51.492C25.2288 51.302 25.5925 51.016 25.875 50.6576L48.3863 21.9076C48.6158 21.6029 48.7824 21.2556 48.8763 20.8859C48.9703 20.5162 48.9897 20.1315 48.9335 19.7542C48.8773 19.3769 48.7466 19.0146 48.549 18.6883C48.3514 18.3621 48.0908 18.0784 47.7825 17.8538ZM62.1575 17.8538C61.8599 17.6182 61.5186 17.4438 61.1532 17.3408C60.7878 17.2378 60.4057 17.2081 60.0288 17.2536C59.6519 17.299 59.2878 17.4186 58.9574 17.6056C58.627 17.7925 58.3369 18.043 58.1038 18.3426L37.9788 44.2176L36.225 42.0613L32.6025 46.7188L35.765 50.6576C36.0356 50.9911 36.3775 51.2598 36.7656 51.4439C37.1536 51.628 37.578 51.7228 38.0075 51.7213C38.4394 51.7193 38.8652 51.6201 39.2534 51.4309C39.6416 51.2418 39.9823 50.9676 40.25 50.6288L62.7613 21.8788C62.9863 21.575 63.1492 21.2298 63.2406 20.863C63.3321 20.4962 63.3503 20.115 63.2942 19.7411C63.2381 19.3672 63.1089 19.0081 62.9138 18.6843C62.7188 18.3604 62.4618 18.0782 62.1575 17.8538Z" fill="white"/>
<path d="M25.0413 37.5474L28.75 32.8899L28.175 32.1999C27.948 31.8855 27.6598 31.6202 27.3276 31.42C26.9954 31.2199 26.6261 31.089 26.2421 31.0353C25.858 30.9816 25.467 31.0061 25.0926 31.1074C24.7183 31.2088 24.3683 31.3848 24.0638 31.6249C23.7684 31.8622 23.5229 32.1555 23.3413 32.4879C23.1596 32.8204 23.0455 33.1854 23.0054 33.5622C22.9653 33.9389 23.0001 34.3198 23.1077 34.683C23.2153 35.0462 23.3937 35.3846 23.6325 35.6787L25.0413 37.5474Z" fill="white"/>
</svg>
