<svg width="76" height="38" viewBox="0 0 76 38" fill="none" xmlns="http://www.w3.org/2000/svg">
<path d="M0 18.9132C0 13.7297 1.84181 9.28158 5.52544 5.56894C9.20906 1.85631 13.6224 0 18.7655 0C23.9085 0 28.3219 1.85631 32.0055 5.56894L38.0522 11.3479L44.0987 5.46392C47.7129 1.82131 52.0915 0 57.2345 0C62.3081 0 66.7042 1.85631 70.4226 5.56894C74.141 9.28158 76 13.7297 76 18.9132C76 24.0968 74.141 28.5449 70.4226 32.2575C66.7042 35.9701 62.3081 37.8265 57.2345 37.8265C52.0915 37.8265 47.6781 35.9701 43.9945 32.2575L38.0522 26.4785L31.901 32.3625C28.2871 36.0051 23.9085 37.8262 18.7655 37.8262C13.6224 37.8262 9.20906 35.9701 5.52544 32.2575C1.84181 28.5449 0 24.0968 0 18.9132ZM18.7655 10.9272C16.6108 10.9272 14.7517 11.7154 13.1878 13.2913C11.6241 14.8676 10.8425 16.7412 10.8425 18.9129C10.8425 21.1543 11.6066 23.0457 13.1358 24.5869C14.6647 26.1278 16.5413 26.8983 18.7655 26.8983C20.9894 26.8983 22.8659 26.1278 24.3951 24.5869L30.129 18.9129L24.3951 13.344C22.7964 11.733 20.9199 10.9272 18.7655 10.9272ZM62.8642 24.5869C64.3931 23.046 65.1578 21.1543 65.1578 18.9129C65.1578 16.6712 64.3934 14.7799 62.8642 13.239C61.3353 11.698 59.4759 10.9272 57.2868 10.9272C55.0973 10.9272 53.2383 11.6977 51.7091 13.239L45.871 18.9132L51.6049 24.4822C53.1338 26.0231 55.0106 26.8112 57.2345 26.846C59.4587 26.8813 61.3353 26.1281 62.8642 24.5869Z" fill="white"/>
</svg>
