<svg width="47" height="59" viewBox="0 0 47 59" fill="none" xmlns="http://www.w3.org/2000/svg">
<path d="M43.0833 29.5C44.1713 29.5 45.0961 29.8585 45.8576 30.5755C46.6192 31.2925 47 32.1632 47 33.1875V55.3125C47 56.3368 46.6192 57.2075 45.8576 57.9245C45.0961 58.6415 44.1713 59 43.0833 59H3.91667C2.8287 59 1.90394 58.6415 1.14236 57.9245C0.380787 57.2075 0 56.3368 0 55.3125V33.1875C0 32.1632 0.380787 31.2925 1.14236 30.5755C1.90394 29.8585 2.8287 29.5 3.91667 29.5H5.22222V17.2083C5.22222 12.4709 7.01056 8.41851 10.5872 5.05111C14.1639 1.6837 18.4682 0 23.5 0C28.5318 0 32.8361 1.6837 36.4128 5.05111C39.9894 8.41851 41.7778 12.4709 41.7778 17.2083C41.7778 17.8741 41.5194 18.4503 41.0026 18.9368C40.4858 19.4234 39.8738 19.6667 39.1667 19.6667H36.5556C35.8484 19.6667 35.2364 19.4234 34.7196 18.9368C34.2028 18.4503 33.9444 17.8741 33.9444 17.2083C33.9444 14.4939 32.9245 12.1764 30.8846 10.2559C28.8446 8.33529 26.3831 7.375 23.5 7.375C20.6169 7.375 18.1554 8.33529 16.1155 10.2559C14.0755 12.1764 13.0556 14.4939 13.0556 17.2083V29.5H43.0833Z" fill="white"/>
</svg>
