<svg width="32" height="32" viewBox="0 0 32 32" fill="none" xmlns="http://www.w3.org/2000/svg">
<path d="M5.77572 4.07911C8.89877 1.40597 12.9558 0.082939 17.0543 0.401074C21.1529 0.719208 24.9572 2.65245 27.6303 5.7755C30.3034 8.89855 31.6265 12.9556 31.3083 17.0541C30.9902 21.1526 29.057 24.9569 25.9339 27.6301C22.8109 30.3032 18.7538 31.6262 14.6553 31.3081C10.5568 30.99 6.75248 29.0567 4.07934 25.9337C1.40619 22.8106 0.083166 18.7536 0.4013 14.6551C0.719434 10.5565 2.65267 6.75225 5.77572 4.07911V4.07911ZM10.0731 19.5282C9.87791 19.6953 9.75708 19.9331 9.7372 20.1892C9.71732 20.4454 9.8 20.6989 9.96708 20.8941C10.1341 21.0893 10.3719 21.2102 10.6281 21.23C10.8842 21.2499 11.1378 21.1672 11.333 21.0002L19.8599 13.7016L19.4034 19.5654C19.3935 19.6924 19.4088 19.8201 19.4483 19.9412C19.4878 20.0623 19.5507 20.1744 19.6335 20.2712C19.7164 20.368 19.8175 20.4475 19.931 20.5052C20.0446 20.5629 20.1684 20.5977 20.2954 20.6075C20.4224 20.6174 20.5501 20.6021 20.6712 20.5626C20.7923 20.5231 20.9044 20.4602 21.0012 20.3773C21.098 20.2945 21.1775 20.1934 21.2352 20.0799C21.2929 19.9663 21.3276 19.8425 21.3375 19.7155L21.9737 11.5201C21.9837 11.393 21.9685 11.2653 21.9291 11.1441C21.8897 11.0229 21.8267 10.9107 21.7439 10.8139C21.661 10.7171 21.5599 10.6376 21.4462 10.5799C21.3326 10.5223 21.2087 10.4876 21.0817 10.4779L12.8862 9.84178C12.7592 9.83192 12.6315 9.84717 12.5104 9.88666C12.3893 9.92615 12.2772 9.98911 12.1804 10.0719C12.0836 10.1548 12.0041 10.2559 11.9464 10.3694C11.8887 10.483 11.8539 10.6068 11.8441 10.7338C11.8342 10.8608 11.8495 10.9885 11.8889 11.1096C11.9284 11.2307 11.9914 11.3428 12.0742 11.4396C12.1571 11.5364 12.2581 11.6159 12.3717 11.6736C12.4852 11.7313 12.6091 11.766 12.7361 11.7759L18.6 12.2297L10.0731 19.5282Z" fill="white"/>
</svg>
