<svg width="32" height="27" viewBox="0 0 32 27" fill="none" xmlns="http://www.w3.org/2000/svg">
<path d="M4.44469 5.25C4.20894 5.25 3.98285 5.32902 3.81615 5.46967C3.64945 5.61032 3.5558 5.80109 3.5558 6V22.5C3.5558 22.6989 3.64945 22.8897 3.81615 23.0303C3.98285 23.171 4.20894 23.25 4.44469 23.25C4.68044 23.25 4.90653 23.171 5.07323 23.0303C5.23993 22.8897 5.33358 22.6989 5.33358 22.5V6C5.33358 5.80109 5.23993 5.61032 5.07323 5.46967C4.90653 5.32902 4.68044 5.25 4.44469 5.25Z" fill="#3B47E4"/>
<path d="M8.00025 5.25C7.7645 5.25 7.53841 5.32902 7.37171 5.46967C7.20501 5.61032 7.11136 5.80109 7.11136 6V19.5C7.11136 19.6989 7.20501 19.8897 7.37171 20.0303C7.53841 20.171 7.7645 20.25 8.00025 20.25C8.236 20.25 8.46209 20.171 8.62879 20.0303C8.79549 19.8897 8.88914 19.6989 8.88914 19.5V6C8.88914 5.80109 8.79549 5.61032 8.62879 5.46967C8.46209 5.32902 8.236 5.25 8.00025 5.25Z" fill="#3B47E4"/>
<path d="M11.5558 5.25C11.3201 5.25 11.094 5.32902 10.9273 5.46967C10.7606 5.61032 10.6669 5.80109 10.6669 6V19.5C10.6669 19.6989 10.7606 19.8897 10.9273 20.0303C11.094 20.171 11.3201 20.25 11.5558 20.25C11.7916 20.25 12.0176 20.171 12.1843 20.0303C12.351 19.8897 12.4447 19.6989 12.4447 19.5V6C12.4447 5.80109 12.351 5.61032 12.1843 5.46967C12.0176 5.32902 11.7916 5.25 11.5558 5.25Z" fill="#3B47E4"/>
<path d="M15.1113 5.25C14.8756 5.25 14.6495 5.32902 14.4828 5.46967C14.3161 5.61032 14.2225 5.80109 14.2225 6V19.5C14.2225 19.6989 14.3161 19.8897 14.4828 20.0303C14.6495 20.171 14.8756 20.25 15.1113 20.25C15.3471 20.25 15.5732 20.171 15.7399 20.0303C15.9066 19.8897 16.0002 19.6989 16.0002 19.5V6C16.0002 5.80109 15.9066 5.61032 15.7399 5.46967C15.5732 5.32902 15.3471 5.25 15.1113 5.25Z" fill="#3B47E4"/>
<path d="M18.6669 5.25C18.4312 5.25 18.2051 5.32902 18.0384 5.46967C17.8717 5.61032 17.778 5.80109 17.778 6V19.5C17.778 19.6989 17.8717 19.8897 18.0384 20.0303C18.2051 20.171 18.4312 20.25 18.6669 20.25C18.9027 20.25 19.1288 20.171 19.2955 20.0303C19.4622 19.8897 19.5558 19.6989 19.5558 19.5V6C19.5558 5.80109 19.4622 5.61032 19.2955 5.46967C19.1288 5.32902 18.9027 5.25 18.6669 5.25Z" fill="#3B47E4"/>
<path d="M22.2225 5.25C21.9867 5.25 21.7606 5.32902 21.5939 5.46967C21.4272 5.61032 21.3336 5.80109 21.3336 6V19.5C21.3336 19.6989 21.4272 19.8897 21.5939 20.0303C21.7606 20.171 21.9867 20.25 22.2225 20.25C22.4582 20.25 22.6843 20.171 22.851 20.0303C23.0177 19.8897 23.1114 19.6989 23.1114 19.5V6C23.1114 5.80109 23.0177 5.61032 22.851 5.46967C22.6843 5.32902 22.4582 5.25 22.2225 5.25Z" fill="#3B47E4"/>
<path d="M25.778 5.25C25.5423 5.25 25.3162 5.32902 25.1495 5.46967C24.9828 5.61032 24.8891 5.80109 24.8891 6V19.5C24.8891 19.6989 24.9828 19.8897 25.1495 20.0303C25.3162 20.171 25.5423 20.25 25.778 20.25C26.0138 20.25 26.2399 20.171 26.4066 20.0303C26.5733 19.8897 26.6669 19.6989 26.6669 19.5V6C26.6669 5.80109 26.5733 5.61032 26.4066 5.46967C26.2399 5.32902 26.0138 5.25 25.778 5.25Z" fill="#3B47E4"/>
<path d="M29.3336 5.25C29.0978 5.25 28.8717 5.32902 28.705 5.46967C28.5383 5.61032 28.4447 5.80109 28.4447 6V22.5C28.4447 22.6989 28.5383 22.8897 28.705 23.0303C28.8717 23.171 29.0978 23.25 29.3336 23.25C29.5693 23.25 29.7954 23.171 29.9621 23.0303C30.1288 22.8897 30.2225 22.6989 30.2225 22.5V6C30.2225 5.80109 30.1288 5.61032 29.9621 5.46967C29.7954 5.32902 29.5693 5.25 29.3336 5.25Z" fill="#3B47E4"/>
</svg>
