<svg width="27" height="27" viewBox="0 0 27 27" fill="none" xmlns="http://www.w3.org/2000/svg">
<g clip-path="url(#clip0_51_190)">
<path d="M18.5627 9.28125C18.5627 9.05747 18.6516 8.84286 18.8099 8.68463C18.9681 8.5264 19.1827 8.4375 19.4065 8.4375H22.7815C23.0053 8.4375 23.2199 8.5264 23.3781 8.68463C23.5363 8.84286 23.6252 9.05747 23.6252 9.28125V10.9688C23.6252 11.1925 23.5363 11.4071 23.3781 11.5654C23.2199 11.7236 23.0053 11.8125 22.7815 11.8125H19.4065C19.1827 11.8125 18.9681 11.7236 18.8099 11.5654C18.6516 11.4071 18.5627 11.1925 18.5627 10.9688V9.28125Z" fill="#3B47E4"/>
<path d="M3.37524 3.375C2.48014 3.375 1.62169 3.73058 0.988759 4.36351C0.355824 4.99645 0.000244141 5.85489 0.000244141 6.75L0.000244141 20.25C0.000244141 21.1451 0.355824 22.0035 0.988759 22.6365C1.62169 23.2694 2.48014 23.625 3.37524 23.625H23.6252C24.5203 23.625 25.3788 23.2694 26.0117 22.6365C26.6447 22.0035 27.0002 21.1451 27.0002 20.25V6.75C27.0002 5.85489 26.6447 4.99645 26.0117 4.36351C25.3788 3.73058 24.5203 3.375 23.6252 3.375H3.37524ZM25.3127 6.75V15.1875H1.68774V6.75C1.68774 6.30245 1.86553 5.87322 2.182 5.55676C2.49847 5.24029 2.92769 5.0625 3.37524 5.0625H23.6252C24.0728 5.0625 24.502 5.24029 24.8185 5.55676C25.135 5.87322 25.3127 6.30245 25.3127 6.75ZM23.6252 21.9375H3.37524C2.92769 21.9375 2.49847 21.7597 2.182 21.4432C1.86553 21.1268 1.68774 20.6976 1.68774 20.25V18.5625H25.3127V20.25C25.3127 20.6976 25.135 21.1268 24.8185 21.4432C24.502 21.7597 24.0728 21.9375 23.6252 21.9375Z" fill="#3B47E4"/>
</g>
<defs>
<clipPath id="clip0_51_190">
<rect width="27" height="27" fill="white" transform="translate(0.000244141)"/>
</clipPath>
</defs>
</svg>
