<svg width="27" height="27" viewBox="0 0 27 27" fill="none" xmlns="http://www.w3.org/2000/svg">
<path d="M12.823 23.6355H9.98349C9.9126 23.6394 9.84183 23.626 9.77719 23.5966C9.71256 23.5673 9.65597 23.5227 9.61224 23.4668C9.56765 23.4096 9.53558 23.3437 9.51814 23.2734C9.50069 23.203 9.49826 23.1298 9.51099 23.0584C9.55599 22.7873 9.61224 22.4295 9.68199 21.975L9.81024 21.1571C9.93784 20.3362 10.0683 19.5157 10.2017 18.6956V18.6731L10.4132 17.3636L10.5257 16.6673V16.6616C10.6067 16.161 10.6709 15.7639 10.717 15.468C10.7196 15.4079 10.7344 15.349 10.7607 15.2949C10.787 15.2408 10.8242 15.1926 10.8699 15.1535C10.9156 15.1144 10.9688 15.085 11.0263 15.0673C11.0838 15.0496 11.1443 15.044 11.2041 15.0506H12.9141C13.7345 15.0597 14.5534 14.9798 15.3565 14.8121C16.5657 14.5708 17.6874 14.0077 18.6032 13.182C19.4057 12.4111 20.0081 11.4561 20.3582 10.3999C20.5292 9.90939 20.662 9.40539 20.7542 8.89464C20.7621 8.84739 20.7711 8.82039 20.7824 8.81139C20.7856 8.80704 20.7899 8.80355 20.7948 8.8012C20.7997 8.79885 20.8051 8.79771 20.8105 8.79789H20.8217C20.8464 8.80829 20.8698 8.82151 20.8915 8.83727C21.4821 9.28389 21.877 9.94202 21.994 10.6733C22.1267 11.4383 22.1121 12.2213 21.949 12.9806C21.7359 14.4498 20.9929 15.7902 19.8599 16.7494C18.6083 17.6415 17.0917 18.084 15.5567 18.0049H15.0629C14.879 18.0034 14.7011 18.0699 14.5634 18.1916C14.4206 18.3156 14.3255 18.4855 14.2945 18.672L14.2495 18.8903L13.6262 22.803L13.6037 22.9729C13.5713 23.1615 13.4718 23.3321 13.3236 23.4533C13.1845 23.5729 13.0065 23.6377 12.823 23.6355ZM8.79774 21.3855H5.46212C5.38351 21.3872 5.30551 21.3714 5.23373 21.3393C5.16195 21.3072 5.09817 21.2596 5.04699 21.1999C4.99368 21.1413 4.95434 21.0714 4.93193 20.9954C4.90952 20.9194 4.90463 20.8393 4.91762 20.7611L7.53999 4.12239C7.57297 3.90892 7.68402 3.71529 7.85162 3.57902C8.0135 3.43942 8.22062 3.36345 8.43437 3.36527H15.2001C15.5714 3.37989 15.9404 3.42939 16.3026 3.51264C16.7324 3.59477 17.1554 3.71514 17.5649 3.87264C18.31 4.13611 18.956 4.62233 19.4155 5.26539C19.8512 5.92174 20.0743 6.69632 20.0545 7.48389C20.0358 8.39716 19.8607 9.30047 19.537 10.1546C19.282 10.973 18.84 11.7208 18.246 12.3388C17.6521 12.9568 16.9224 13.4281 16.1147 13.7153C15.1959 14.0264 14.233 14.1879 13.2629 14.1934C13.2516 14.2001 12.7679 14.2013 12.2504 14.2013L11.2379 14.1934C10.9171 14.1607 10.5964 14.2564 10.3461 14.4597C10.0958 14.663 9.93626 14.9572 9.90249 15.2779C9.88787 15.3386 9.54587 17.4683 8.94062 21.273C8.94063 21.2908 8.93669 21.3084 8.92907 21.3245C8.92146 21.3407 8.91036 21.3549 8.89659 21.3662C8.88281 21.3775 8.8667 21.3856 8.84941 21.3899C8.83212 21.3942 8.81409 21.3946 8.79662 21.3911L8.79774 21.3855Z" fill="#3B47E4"/>
</svg>
