<svg width="27" height="27" viewBox="0 0 27 27" fill="none" xmlns="http://www.w3.org/2000/svg">
<g clip-path="url(#clip0_51_215)">
<path d="M12.7833 15.4248C13.0681 15.14 13.5585 15.14 13.8433 15.4248L17.9038 19.4853C18.6527 20.2342 19.6494 20.6455 20.704 20.6455H21.5003L16.3798 25.766C14.782 27.3217 12.1874 27.3217 10.5896 25.766L5.44798 20.6297H5.93841C6.9931 20.6297 7.98978 20.2183 8.73861 19.4695L12.7833 15.4248ZM13.8433 11.5435C13.5058 11.8336 13.0734 11.8388 12.7833 11.5435L8.73861 7.4988C7.98978 6.70251 6.9931 6.33865 5.93841 6.33865H5.44798L10.5843 1.20021C12.1874 -0.400069 14.782 -0.400069 16.3798 1.20021L21.5056 6.32283H20.704C19.6494 6.32283 18.6527 6.73415 17.9038 7.48298L13.8433 11.5435ZM5.93841 7.52517C6.66615 7.52517 7.33587 7.82048 7.89486 8.33728L11.9396 12.382C12.3193 12.7142 12.815 12.9515 13.316 12.9515C13.8117 12.9515 14.3074 12.7142 14.687 12.382L18.7476 8.32146C19.2644 7.80994 19.9763 7.51462 20.704 7.51462H22.6921L25.7665 10.589C27.3644 12.1869 27.3644 14.7814 25.7665 16.3793L22.6921 19.4537H20.704C19.9763 19.4537 19.2644 19.1584 18.7476 18.6416L14.687 14.581C13.954 13.848 12.6726 13.848 11.9396 14.5863L7.89486 18.6258C7.33587 19.1426 6.66615 19.4379 5.93841 19.4379H4.26041L1.20076 16.3793C-0.39952 14.7814 -0.39952 12.1869 1.20076 10.589L4.26041 7.52517H5.93841Z" fill="#3B47E4"/>
</g>
<defs>
<clipPath id="clip0_51_215">
<rect width="27" height="27" fill="white" transform="translate(0.000244141)"/>
</clipPath>
</defs>
</svg>
