<svg width="160" height="160" viewBox="0 0 160 160" fill="none" xmlns="http://www.w3.org/2000/svg">
<path d="M139.487 63.9998L149.416 43.8842C149.722 43.2626 149.871 42.5751 149.848 41.8824C149.825 41.1898 149.632 40.5135 149.285 39.9134C148.939 39.3134 148.45 38.8081 147.861 38.4424C147.273 38.0766 146.604 37.8617 145.913 37.8167L123.546 36.3672L122.098 13.9848C122.053 13.2921 121.839 12.6211 121.473 12.0315C121.107 11.4418 120.601 10.9517 120 10.6048C119.399 10.2579 118.722 10.065 118.029 10.043C117.335 10.0211 116.647 10.1709 116.026 10.4791L95.9414 20.4231L83.5032 1.75705C81.9369 -0.585685 78.0631 -0.585685 76.4968 1.75705L64.0586 20.4231L43.974 10.4791C43.3525 10.1709 42.6646 10.0211 41.9713 10.043C41.278 10.065 40.6008 10.2579 40 10.6048C39.3992 10.9517 38.8934 11.4418 38.5274 12.0315C38.1614 12.6211 37.9467 13.2921 37.9023 13.9848L36.4623 36.3672L14.0871 37.8083C13.3949 37.8527 12.7244 38.0676 12.1351 38.4338C11.5459 38.8 11.0562 39.3062 10.7095 39.9074C10.3629 40.5087 10.17 41.1863 10.1481 41.8801C10.1262 42.5738 10.2759 43.2623 10.5839 43.8842L20.5125 63.9913L1.86794 76.4382C1.29304 76.8243 0.821924 77.3461 0.496161 77.9574C0.170399 78.5688 0 79.251 0 79.9439C0 80.6368 0.170399 81.319 0.496161 81.9303C0.821924 82.5417 1.29304 83.0635 1.86794 83.4496L20.5209 95.8964L10.5839 116.004C10.2733 116.625 10.1216 117.313 10.1424 118.007C10.1632 118.702 10.3558 119.38 10.703 119.981C11.0503 120.583 11.5412 121.088 12.1318 121.453C12.7224 121.818 13.3943 122.03 14.0871 122.071L36.4539 123.512L37.8939 145.903C37.9383 146.596 38.153 147.267 38.519 147.856C38.8849 148.446 39.3908 148.936 39.9916 149.283C40.5924 149.63 41.2696 149.823 41.9628 149.845C42.6561 149.867 43.3441 149.717 43.9656 149.409L64.0586 139.473L76.4968 158.131C76.8826 158.706 77.404 159.177 78.0149 159.503C78.6259 159.829 79.3076 160 80 160C80.6924 160 81.3741 159.829 81.9851 159.503C82.596 159.177 83.1174 158.706 83.5032 158.131L95.9414 139.473L116.034 149.409C116.656 149.717 117.344 149.867 118.037 149.845C118.73 149.823 119.408 149.63 120.008 149.283C120.609 148.936 121.115 148.446 121.481 147.856C121.847 147.267 122.062 146.596 122.106 145.903L123.546 123.521L145.913 122.071C146.605 122.027 147.276 121.812 147.865 121.446C148.454 121.079 148.944 120.573 149.29 119.972C149.637 119.371 149.83 118.693 149.852 117.999C149.874 117.306 149.724 116.617 149.416 115.995L139.487 95.8964L158.132 83.4412C158.707 83.0551 159.178 82.5333 159.504 81.9219C159.83 81.3105 160 80.6283 160 79.9355C160 79.2426 159.83 78.5604 159.504 77.949C159.178 77.3376 158.707 76.8159 158.132 76.4298L139.487 63.9998Z" fill="#FF99D9"/>
</svg>
