<svg width="184" height="167" viewBox="0 0 184 167" fill="none" xmlns="http://www.w3.org/2000/svg">
<path d="M112.852 71.5499C115.986 76.9829 116.833 83.4384 115.208 89.4962C113.582 95.554 109.616 100.718 104.183 103.852C98.7504 106.986 92.2949 107.833 86.2371 106.208C80.1793 104.582 75.0154 100.617 71.8814 95.1835C68.7473 89.7505 67.9 83.295 69.5256 77.2372C71.1512 71.1794 75.1168 66.0154 80.5498 62.8814C85.9828 59.7474 92.4383 58.9 98.4961 60.5257C104.554 62.1513 109.718 66.1168 112.852 71.5499Z" fill="#F96400"/>
<path d="M26.8138 121.181C26.8138 121.181 25.3991 61.9329 66.3696 38.2992C107.34 14.6656 157.919 45.553 157.919 45.553C157.919 45.553 159.334 104.801 118.364 128.434C77.3931 152.068 26.8138 121.181 26.8138 121.181ZM108.91 112.046C116.516 107.659 122.068 100.429 124.344 91.9481C126.62 83.4672 125.434 74.4295 121.046 66.8233C116.658 59.217 109.429 53.6653 100.948 51.3894C92.467 49.1135 83.4293 50.2998 75.8231 54.6874C68.2168 59.0751 62.6651 66.3045 60.3892 74.7855C58.1133 83.2664 59.2996 92.3041 63.6872 99.9103C68.0749 107.517 75.3043 113.068 83.7853 115.344C92.2662 117.62 101.304 116.434 108.91 112.046Z" fill="#F96400"/>
</svg>
