<svg width="116" height="176" viewBox="0 0 116 176" fill="none" xmlns="http://www.w3.org/2000/svg">
<path d="M146.462 70.3998L156.887 48.2727C157.208 47.5889 157.364 46.8326 157.34 46.0707C157.316 45.3088 157.113 44.5648 156.749 43.9048C156.386 43.2447 155.872 42.6889 155.255 42.2866C154.637 41.8843 153.934 41.6479 153.209 41.5984L129.723 40.004L128.203 15.3833C128.156 14.6213 127.93 13.8832 127.546 13.2346C127.162 12.586 126.631 12.0469 126 11.6653C125.369 11.2837 124.658 11.0715 123.93 11.0473C123.202 11.0232 122.48 11.188 121.827 11.527L100.738 22.4654L87.6784 1.93276C86.0337 -0.644253 81.9663 -0.644253 80.3216 1.93276L67.2616 22.4654L46.1727 11.527C45.5202 11.188 44.7978 11.0232 44.0698 11.0473C43.3419 11.0715 42.6309 11.2837 42 11.6653C41.3692 12.0469 40.838 12.586 40.4538 13.2346C40.0695 13.8832 39.8441 14.6213 39.7975 15.3833L38.2854 40.004L14.7915 41.5891C14.0647 41.638 13.3606 41.8743 12.7419 42.2772C12.1232 42.68 11.609 43.2368 11.245 43.8982C10.881 44.5595 10.6785 45.3049 10.6555 46.0681C10.6325 46.8312 10.7897 47.5885 11.1131 48.2727L21.5381 70.3905L1.96134 84.082C1.35769 84.5068 0.86302 85.0807 0.520969 85.7532C0.178919 86.4257 0 87.1761 0 87.9383C0 88.7004 0.178919 89.4509 0.520969 90.1234C0.86302 90.7959 1.35769 91.3698 1.96134 91.7945L21.547 105.486L11.1131 127.604C10.787 128.287 10.6277 129.045 10.6495 129.808C10.6713 130.572 10.8736 131.318 11.2382 131.979C11.6028 132.641 12.1182 133.197 12.7384 133.598C13.3586 134 14.064 134.233 14.7915 134.278L38.2766 135.863L39.7886 160.493C39.8352 161.255 40.0607 161.993 40.4449 162.642C40.8292 163.291 41.3603 163.83 41.9912 164.211C42.622 164.593 43.333 164.805 44.061 164.829C44.7889 164.853 45.5113 164.689 46.1639 164.35L67.2616 153.42L80.3216 173.944C80.7267 174.577 81.2742 175.095 81.9157 175.454C82.5572 175.812 83.273 176 84 176C84.727 176 85.4428 175.812 86.0843 175.454C86.7258 175.095 87.2733 174.577 87.6784 173.944L100.738 153.42L121.836 164.35C122.489 164.689 123.211 164.853 123.939 164.829C124.667 164.805 125.378 164.593 126.009 164.211C126.64 163.83 127.171 163.291 127.555 162.642C127.939 161.993 128.165 161.255 128.211 160.493L129.723 135.873L153.209 134.278C153.935 134.229 154.639 133.993 155.258 133.59C155.877 133.187 156.391 132.63 156.755 131.969C157.119 131.308 157.321 130.562 157.344 129.799C157.368 129.036 157.21 128.279 156.887 127.595L146.462 105.486L166.039 91.7853C166.642 91.3606 167.137 90.7866 167.479 90.1141C167.821 89.4416 168 88.6912 168 87.929C168 87.1669 167.821 86.4164 167.479 85.7439C167.137 85.0714 166.642 84.4975 166.039 84.0728L146.462 70.3998Z" fill="#FB6DC6"/>
</svg>
