<svg width="59" height="61" viewBox="0 0 59 61" fill="none" xmlns="http://www.w3.org/2000/svg">
<path d="M11.1854 42.6754V53.129L21.6333 50.5464L29.5 58.4173L37.3667 50.5464L47.8146 53.129V42.6754L58.3854 39.9697L53.1 29.5161L58.3854 19.0625L47.8146 16.3568V5.90322L37.3667 8.48588L29.5 0.614914L21.6333 8.48588L11.1854 5.90322V16.3568L0.614594 19.0625L5.90001 29.5161L0.614594 39.9697L11.1854 42.6754ZM10.5708 27.1794L8.23543 22.3831L12.4146 21.3992C13.6438 21.1532 14.6066 20.5588 15.3031 19.6159C15.9997 18.673 16.3479 17.5867 16.3479 16.3568V12.6673L20.2813 13.7742H21.6333C23.0264 13.7742 24.2556 13.2413 25.3208 12.1754L29.5 7.99395L33.6792 12.1754C34.7444 13.2413 35.9736 13.7742 37.3667 13.7742C37.8583 13.7742 38.309 13.6922 38.7188 13.5282L42.6521 12.6673V16.3568C42.6521 17.5867 43.0004 18.673 43.6969 19.6159C44.3934 20.5588 45.3563 21.1532 46.5854 21.3992L50.7646 22.3831L48.4292 27.1794C47.6097 28.7372 47.6097 30.295 48.4292 31.8528L50.7646 36.6492L46.5854 37.6331C45.3563 37.879 44.3934 38.4734 43.6969 39.4163C43.0004 40.3592 42.6521 41.4456 42.6521 42.6754V46.3649L38.7188 45.2581H37.3667C35.9736 45.2581 34.7444 45.791 33.6792 46.8568L29.5 51.0383L25.3208 46.8568C24.2556 45.791 23.0264 45.2581 21.6333 45.2581C21.1417 45.2581 20.691 45.34 20.2813 45.504L16.3479 46.3649V42.6754C16.3479 41.4456 15.9997 40.3592 15.3031 39.4163C14.6066 38.4734 13.6438 37.879 12.4146 37.6331L8.23543 36.6492L10.5708 31.8528C11.3903 30.295 11.3903 28.7372 10.5708 27.1794ZM26.9188 38.4939L39.2104 26.0726C40.3576 24.9247 40.3576 23.6949 39.2104 22.3831C37.9813 21.3172 36.7521 21.3172 35.5229 22.3831L26.9188 31.1149L23.4771 27.6714C22.2479 26.6055 21.0188 26.6055 19.7896 27.6714C18.7243 28.9012 18.7243 30.131 19.7896 31.3609L26.9188 38.4939Z" fill="white"/>
</svg>
