<svg width="64" height="64" viewBox="0 0 64 64" fill="none" xmlns="http://www.w3.org/2000/svg">
<path d="M33.92 28.8C32.64 28.48 31.36 27.84 30.4 26.88C29.44 26.56 29.12 25.6 29.12 24.96C29.12 24.32 29.44 23.36 30.08 23.04C31.04 22.4 32 21.76 32.96 22.08C34.88 22.08 36.48 23.04 37.44 24.32L40.32 20.48C39.36 19.52 38.4 18.88 37.44 18.24C36.48 17.6 35.2 17.28 33.92 17.28V12.8H30.08V17.28C28.48 17.6 26.88 18.56 25.6 19.84C24.32 21.44 23.36 23.36 23.68 25.28C23.68 27.2 24.32 29.12 25.6 30.4C27.2 32 29.44 32.96 31.36 33.92C32.32 34.24 33.6 34.88 34.56 35.52C35.2 36.16 35.52 37.12 35.52 38.08C35.52 39.04 35.2 40 34.56 40.96C33.6 41.92 32.32 42.24 31.36 42.24C30.08 42.24 28.48 41.92 27.52 40.96C26.56 40.32 25.6 39.36 24.96 38.4L21.76 41.92C22.72 43.2 23.68 44.16 24.96 45.12C26.56 46.08 28.48 47.04 30.4 47.04V51.2H33.92V46.4C35.84 46.08 37.44 45.12 38.72 43.84C40.32 42.24 41.28 39.68 41.28 37.44C41.28 35.52 40.64 33.28 39.04 32C37.44 30.4 35.84 29.44 33.92 28.8ZM32 6.39999C17.92 6.39999 6.4 17.92 6.4 32C6.4 46.08 17.92 57.6 32 57.6C46.08 57.6 57.6 46.08 57.6 32C57.6 17.92 46.08 6.39999 32 6.39999ZM32 54.08C19.84 54.08 9.92 44.16 9.92 32C9.92 19.84 19.84 9.91999 32 9.91999C44.16 9.91999 54.08 19.84 54.08 32C54.08 44.16 44.16 54.08 32 54.08Z" fill="white"/>
</svg>
