<svg width="64" height="64" viewBox="0 0 64 64" fill="none" xmlns="http://www.w3.org/2000/svg">
<path d="M9.60001 20C9.60001 17.2418 10.6957 14.5965 12.6461 12.6461C14.5965 10.6957 17.2418 9.60001 20 9.60001H23.2C23.8365 9.60001 24.447 9.85286 24.8971 10.3029C25.3472 10.753 25.6 11.3635 25.6 12C25.6 12.6365 25.3472 13.247 24.8971 13.6971C24.447 14.1472 23.8365 14.4 23.2 14.4H20C18.5148 14.4 17.0904 14.99 16.0402 16.0402C14.99 17.0904 14.4 18.5148 14.4 20V23.2C14.4 23.8365 14.1472 24.447 13.6971 24.8971C13.247 25.3472 12.6365 25.6 12 25.6C11.3635 25.6 10.753 25.3472 10.3029 24.8971C9.85286 24.447 9.60001 23.8365 9.60001 23.2V20ZM54.4 44C54.4 46.7583 53.3043 49.4035 51.3539 51.3539C49.4035 53.3043 46.7583 54.4 44 54.4H40.8C40.1635 54.4 39.553 54.1472 39.103 53.6971C38.6529 53.247 38.4 52.6365 38.4 52C38.4 51.3635 38.6529 50.753 39.103 50.303C39.553 49.8529 40.1635 49.6 40.8 49.6H44C45.4852 49.6 46.9096 49.01 47.9598 47.9598C49.01 46.9096 49.6 45.4852 49.6 44V40.8C49.6 40.1635 49.8529 39.553 50.303 39.103C50.753 38.6529 51.3635 38.4 52 38.4C52.6365 38.4 53.247 38.6529 53.6971 39.103C54.1472 39.553 54.4 40.1635 54.4 40.8V44ZM54.4 20C54.4 17.2418 53.3043 14.5965 51.3539 12.6461C49.4035 10.6957 46.7583 9.60001 44 9.60001H40.8C40.1635 9.60001 39.553 9.85286 39.103 10.3029C38.6529 10.753 38.4 11.3635 38.4 12C38.4 12.6365 38.6529 13.247 39.103 13.6971C39.553 14.1472 40.1635 14.4 40.8 14.4H44C47.0912 14.4 49.6 16.9088 49.6 20V23.2C49.6 23.8365 49.8529 24.447 50.303 24.8971C50.753 25.3472 51.3635 25.6 52 25.6C52.6365 25.6 53.247 25.3472 53.6971 24.8971C54.1472 24.447 54.4 23.8365 54.4 23.2V20ZM20 54.4C17.2418 54.4 14.5965 53.3043 12.6461 51.3539C10.6957 49.4035 9.60001 46.7583 9.60001 44V40.8C9.60001 40.1635 9.85286 39.553 10.3029 39.103C10.753 38.6529 11.3635 38.4 12 38.4C12.6365 38.4 13.247 38.6529 13.6971 39.103C14.1472 39.553 14.4 40.1635 14.4 40.8V44C14.4 47.0912 16.9088 49.6 20 49.6H23.2C23.8365 49.6 24.447 49.8529 24.8971 50.303C25.3472 50.753 25.6 51.3635 25.6 52C25.6 52.6365 25.3472 53.247 24.8971 53.6971C24.447 54.1472 23.8365 54.4 23.2 54.4H20ZM32 38.4C33.6974 38.4 35.3253 37.7257 36.5255 36.5255C37.7257 35.3253 38.4 33.6974 38.4 32C38.4 30.3026 37.7257 28.6748 36.5255 27.4745C35.3253 26.2743 33.6974 25.6 32 25.6C30.3026 25.6 28.6748 26.2743 27.4745 27.4745C26.2743 28.6748 25.6 30.3026 25.6 32C25.6 33.6974 26.2743 35.3253 27.4745 36.5255C28.6748 37.7257 30.3026 38.4 32 38.4ZM22.4 25.6C23.2487 25.6 24.0626 25.2629 24.6627 24.6627C25.2629 24.0626 25.6 23.2487 25.6 22.4C25.6 21.5513 25.2629 20.7374 24.6627 20.1373C24.0626 19.5371 23.2487 19.2 22.4 19.2C21.5513 19.2 20.7374 19.5371 20.1373 20.1373C19.5371 20.7374 19.2 21.5513 19.2 22.4C19.2 23.2487 19.5371 24.0626 20.1373 24.6627C20.7374 25.2629 21.5513 25.6 22.4 25.6Z" fill="white"/>
</svg>
