<svg width="64" height="64" viewBox="0 0 64 64" fill="none" xmlns="http://www.w3.org/2000/svg">
<path d="M32 5.33333C17.296 5.33333 5.33334 17.296 5.33334 32C5.33334 46.704 17.296 58.6667 32 58.6667C46.704 58.6667 58.6667 46.704 58.6667 32C58.6667 17.296 46.704 5.33333 32 5.33333ZM32 53.3333C20.2373 53.3333 10.6667 43.7627 10.6667 32C10.6667 20.2373 20.2373 10.6667 32 10.6667C43.7627 10.6667 53.3333 20.2373 53.3333 32C53.3333 43.7627 43.7627 53.3333 32 53.3333Z" fill="white"/>
<path d="M34.6667 18.6667H29.3333V33.104L38.1147 41.8853L41.8853 38.1147L34.6667 30.896V18.6667Z" fill="white"/>
</svg>
