<svg width="31" height="31" viewBox="0 0 31 31" fill="none" xmlns="http://www.w3.org/2000/svg">
<path d="M15.5 0C19.6109 0 23.5533 1.63303 26.4602 4.53984C29.367 7.44666 31 11.3891 31 15.5C31 19.6109 29.367 23.5533 26.4602 26.4602C23.5533 29.367 19.6109 31 15.5 31C11.3891 31 7.44666 29.367 4.53984 26.4602C1.63303 23.5533 0 19.6109 0 15.5C0 11.3891 1.63303 7.44666 4.53984 4.53984C7.44666 1.63303 11.3891 0 15.5 0V0ZM8.71875 14.5312C8.46182 14.5312 8.21542 14.6333 8.03374 14.815C7.85206 14.9967 7.75 15.2431 7.75 15.5C7.75 15.7569 7.85206 16.0033 8.03374 16.185C8.21542 16.3667 8.46182 16.4688 8.71875 16.4688H19.9427L15.7829 20.6266C15.6928 20.7167 15.6214 20.8236 15.5726 20.9413C15.5239 21.059 15.4988 21.1851 15.4988 21.3125C15.4988 21.4399 15.5239 21.566 15.5726 21.6837C15.6214 21.8014 15.6928 21.9083 15.7829 21.9984C15.8729 22.0884 15.9799 22.1599 16.0976 22.2086C16.2152 22.2574 16.3414 22.2825 16.4688 22.2825C16.5961 22.2825 16.7223 22.2574 16.8399 22.2086C16.9576 22.1599 17.0646 22.0884 17.1546 21.9984L22.9671 16.1859C23.0573 16.0959 23.1289 15.989 23.1778 15.8713C23.2266 15.7536 23.2517 15.6274 23.2517 15.5C23.2517 15.3726 23.2266 15.2464 23.1778 15.1287C23.1289 15.011 23.0573 14.9041 22.9671 14.8141L17.1546 9.00163C17.0646 8.91155 16.9576 8.84011 16.8399 8.79136C16.7223 8.74261 16.5961 8.71753 16.4688 8.71753C16.3414 8.71753 16.2152 8.74261 16.0976 8.79136C15.9799 8.84011 15.8729 8.91155 15.7829 9.00163C15.6928 9.09169 15.6214 9.19862 15.5726 9.31631C15.5239 9.43399 15.4988 9.56012 15.4988 9.6875C15.4988 9.81488 15.5239 9.94101 15.5726 10.0587C15.6214 10.1764 15.6928 10.2833 15.7829 10.3734L19.9427 14.5312H8.71875Z" fill="#FB6DC6"/>
</svg>
