<svg width="26" height="26" viewBox="0 0 26 26" fill="none" xmlns="http://www.w3.org/2000/svg">
<path d="M13 24.375C9.98316 24.375 7.08989 23.1766 4.95666 21.0433C2.82343 18.9101 1.625 16.0168 1.625 13C1.625 9.98316 2.82343 7.08989 4.95666 4.95666C7.08989 2.82343 9.98316 1.625 13 1.625C16.0168 1.625 18.9101 2.82343 21.0433 4.95666C23.1766 7.08989 24.375 9.98316 24.375 13C24.375 16.0168 23.1766 18.9101 21.0433 21.0433C18.9101 23.1766 16.0168 24.375 13 24.375ZM13 26C16.4478 26 19.7544 24.6304 22.1924 22.1924C24.6304 19.7544 26 16.4478 26 13C26 9.55219 24.6304 6.24558 22.1924 3.80761C19.7544 1.36964 16.4478 0 13 0C9.55219 0 6.24558 1.36964 3.80761 3.80761C1.36964 6.24558 0 9.55219 0 13C0 16.4478 1.36964 19.7544 3.80761 22.1924C6.24558 24.6304 9.55219 26 13 26Z" fill="#FB6DC6"/>
<path d="M17.8262 8.07671C17.8146 8.08792 17.8038 8.09987 17.7937 8.11246L12.1501 15.3031L8.74894 11.9003C8.51791 11.6851 8.21233 11.5679 7.89659 11.5734C7.58085 11.579 7.2796 11.7069 7.0563 11.9302C6.83301 12.1535 6.7051 12.4547 6.69953 12.7705C6.69396 13.0862 6.81116 13.3918 7.02644 13.6228L11.3262 17.9242C11.442 18.0398 11.58 18.1309 11.7318 18.1921C11.8836 18.2533 12.0461 18.2832 12.2098 18.2802C12.3734 18.2771 12.5348 18.2412 12.6842 18.1744C12.8336 18.1077 12.9681 18.0115 13.0796 17.8917L19.5666 9.78296C19.7875 9.55112 19.9082 9.24166 19.9028 8.92149C19.8973 8.60132 19.7661 8.29616 19.5374 8.07198C19.3087 7.84781 19.001 7.72263 18.6808 7.72352C18.3606 7.7244 18.0536 7.85127 17.8262 8.07671Z" fill="#FB6DC6"/>
</svg>
