<svg width="106" height="106" viewBox="0 0 106 106" fill="none" xmlns="http://www.w3.org/2000/svg">
<g clip-path="url(#clip0_134_46)">
<path d="M63.3805 46.8501C64.9843 49.6304 65.418 52.934 64.5861 56.0341C63.7541 59.1341 61.7248 61.7767 58.9445 63.3805C56.1642 64.9843 52.8606 65.418 49.7605 64.5861C46.6605 63.7542 44.0179 61.7248 42.4141 58.9445C40.8103 56.1642 40.3766 52.8606 41.2085 49.7606C42.0404 46.6605 44.0698 44.0179 46.8501 42.4141C49.6304 40.8103 52.934 40.3766 56.034 41.2086C59.1341 42.0405 61.7767 44.0698 63.3805 46.8501V46.8501Z" fill="#F96400"/>
<path d="M19.351 72.2483C19.351 72.2483 18.627 41.9286 39.5935 29.8342C60.5599 17.7399 86.4436 33.5463 86.4436 33.5463C86.4436 33.5463 87.1675 63.866 66.2011 75.9604C45.2347 88.0548 19.351 72.2483 19.351 72.2483ZM61.3634 67.5738C65.2558 65.3285 68.0969 61.6288 69.2616 57.2888C70.4262 52.9487 69.8191 48.3237 67.5738 44.4312C65.3285 40.5388 61.6288 37.6977 57.2887 36.533C52.9487 35.3684 48.3237 35.9755 44.4312 38.2208C40.5388 40.4661 37.6977 44.1658 36.533 48.5059C35.3683 52.8459 35.9754 57.4709 38.2208 61.3634C40.4661 65.2558 44.1658 68.0969 48.5059 69.2616C52.8459 70.4263 57.4709 69.8192 61.3634 67.5738V67.5738Z" fill="#F96400"/>
</g>
<defs>
<clipPath id="clip0_134_46">
<rect width="77.4549" height="77.4549" fill="white" transform="translate(0 38.702) rotate(-29.9783)"/>
</clipPath>
</defs>
</svg>
